<?xml version="1.0" encoding="utf-8"?>
<!-- Generator: Adobe Illustrator 22.0.0, SVG Export Plug-In . SVG Version: 6.00 Build 0)  -->
<svg version="1.1" id="Capa_1" xmlns="http://www.w3.org/2000/svg" xmlns:xlink="http://www.w3.org/1999/xlink" x="0px" y="0px"
	 viewBox="0 0 490 490" style="enable-background:new 0 0 490 490;" xml:space="preserve">
<style type="text/css">
	.st0{fill:#FFFFFF;}
</style>
<g>
	<path class="st0" d="M1,96.5c0.9-4.8,1.6-9.7,2.8-14.4c3.8-14.1,10.4-18.9,25-18.9c143.5,0,287,0,430.6,0
		c19.9,0,28.1,6.4,29.9,26.2c1.2,13.3,0.4,26.9-0.5,40.3c-0.6,9-4.9,17-10.4,24.1C425.9,220.6,373.5,287.3,320.9,354
		c-13.3,16.9-27,33.5-40.5,50.4c-3,3.7-5.4,7.8-8.3,11.6c-15.3,19.6-37.2,19.6-52.5-0.1c-25.4-32.7-50.8-65.4-76.3-98.1
		c-11.2-14.4-22.5-28.7-33.8-43C78,235.3,46.6,195.6,15,156.1c-8-10-12.5-21.2-13.2-34c-0.1-1.6-0.6-3.1-0.9-4.6
		C1,110.5,1,103.5,1,96.5z"/>
</g>
</svg>
