<?xml version="1.0" encoding="utf-8"?>
<!-- Generator: Adobe Illustrator 22.0.0, SVG Export Plug-In . SVG Version: 6.00 Build 0)  -->
<svg version="1.1" id="Capa_1" xmlns="http://www.w3.org/2000/svg" xmlns:xlink="http://www.w3.org/1999/xlink" x="0px" y="0px"
	 viewBox="0 0 490 490" style="enable-background:new 0 0 490 490;" xml:space="preserve">
<style type="text/css">
	.st0{fill:#FFFFFF;}
</style>
<g>
	<path class="st0" d="M95,491.3c-4.8-0.9-9.7-1.6-14.4-2.8c-14.1-3.8-18.9-25-18.9-25L340,246.9L61.7,32.9c0,0,6.4-28.1,26.2-29.9
		c13.3-1.2,26.9-0.4,40.3,0.5c9,0.6,17,4.9,24.1,10.4c66.8,52.5,133.5,104.9,200.2,157.5c16.9,13.3,33.5,27,50.4,40.5
		c3.7,3,7.8,5.4,11.6,8.3c19.6,15.3,19.6,37.2-0.1,52.5c-32.7,25.4-65.4,50.8-98.1,76.3c-14.4,11.2-28.7,22.5-43,33.8
		c-39.5,31.5-79.2,62.9-118.7,94.5c-10,8-21.2,12.5-34,13.2c-1.6,0.1-3.1,0.6-4.6,0.9C109,491.3,102,491.3,95,491.3z"/>
</g>
</svg>
