<?xml version="1.0" encoding="utf-8"?>
<!-- Generator: Adobe Illustrator 22.0.0, SVG Export Plug-In . SVG Version: 6.00 Build 0)  -->
<svg version="1.1" id="Camada_1" xmlns="http://www.w3.org/2000/svg" xmlns:xlink="http://www.w3.org/1999/xlink" x="0px" y="0px"
	 viewBox="0 0 684.4 195.1" style="enable-background:new 0 0 684.4 195.1;" xml:space="preserve">
<style type="text/css">
	.st0{display:none;}
	.st1{fill:#E50914;}
</style>
<rect class="st0" width="684.4" height="195.1"/>
<image style="display:none;overflow:visible;" width="2560" height="1440" xlink:href="logo.png"  transform="matrix(0.3253 0 0 0.3253 -72.1962 -146.521)">
</image>
<g id="Netflix">
	<path id="N" class="st1" d="M4.5,191.3V8.6h27.2L69.2,111V8.6h28.6v170.5l-31.5,4.1L33.4,87.7l0,99.4
		C28.9,187.5,4.5,191.3,4.5,191.3z"/>
	<polygon id="E" class="st1" points="125,8.6 204.2,8.6 204.2,37 154,37 154,75.4 192.3,75.4 192.3,103.3 154,103.3 154,145.8 
		204.2,142.7 204.2,170.9 125,177.2 	"/>
	<polygon id="T" class="st1" points="222.4,8.6 310.9,8.6 310.9,36.9 281.6,36.9 281.6,167.6 252.6,168.7 252.6,37 222.4,37 	"/>
	<polygon id="F" class="st1" points="329.3,8.7 409.2,8.7 409.2,37 358.1,37 358.1,73.8 396.9,73.8 396.9,102.1 357.9,102.1 
		357.9,167 329.3,167 	"/>
	<polygon id="L" class="st1" points="427.6,8.6 427.6,168.5 504.9,172.1 504.9,144.2 456,141.2 455.6,8.7 	"/>
	<polygon id="I" class="st1" points="528.5,8.6 556.9,8.6 556.9,176 528.5,173.8 	"/>
	<polygon id="X" class="st1" points="682.8,8.7 651.2,8.7 630.7,56.4 612.4,8.7 581.5,8.7 614.6,93.9 578.4,177.8 607.7,181.3 
		629.5,132.6 650.4,186.4 682.8,190.5 646,94.8 	"/>
</g>
</svg>
