<?xml version="1.0" encoding="utf-8"?>
<!-- Generator: Adobe Illustrator 22.0.0, SVG Export Plug-In . SVG Version: 6.00 Build 0)  -->
<svg version="1.1" id="Camada_1" xmlns="http://www.w3.org/2000/svg" xmlns:xlink="http://www.w3.org/1999/xlink" x="0px" y="0px"
	 viewBox="0 0 1080 1080" style="enable-background:new 0 0 1080 1080;" xml:space="preserve">
<style type="text/css">
	.st0{fill:#B1060F;}
	.st1{fill:#E50913;}
</style>
<image style="display:none;overflow:visible;" width="896" height="932" xlink:href="assets/img/Netflix-Emblema.png"  transform="matrix(1.2453 0 0 1.2453 -5.2404 -24.6303)">
</image>
<path class="st0" d="M290.7,90.6h179.4v907.6c0,0-140.4,6.1-177.3,14.7C292.8,981.4,290.7,90.6,290.7,90.6z"/>
<path class="st0" d="M796.5,90.6H617.1v907.6c0,0,140.4,6.1,177.3,14.7C794.4,981.4,796.5,90.6,796.5,90.6z"/>
<path class="st1" d="M291.8,89.9l319.9,908.7c0,0,159.4,9.1,185.7,16.1C779.9,963.6,472.4,92.1,472.4,92.1L291.8,89.9z"/>
</svg>
